<svg xmlns="http://www.w3.org/2000/svg" viewBox="0 0 70 59" fill="none" role="img" aria-label="ipn">
  <path fill="#00AEEF" d="M 10.82 0.00 L 11.13 0.58 L 12.45 1.42 L 13.75 2.88 L 14.59 5.17 L 14.67 6.83 L 13.77 9.33 L 12.61 10.75 L 11.00 11.84 L 9.58 12.27 L 8.50 12.37 L 7.42 12.34 L 5.58 11.82 L 4.17 10.86 L 3.05 9.58 L 2.16 7.58 L 2.08 5.00 L 3.03 2.75 L 4.30 1.33 L 5.58 0.53 L 5.86 0.00 Z M 14.92 46.67 L 13.00 46.67 L 10.83 45.79 L 9.14 44.08 L 8.41 42.50 L 8.13 40.75 L 8.09 21.92 L 7.76 20.42 L 6.67 18.41 L 5.58 17.16 L 3.00 15.61 L 2.82 15.25 L 3.08 14.92 L 9.17 14.79 L 12.50 14.88 L 13.92 15.19 L 16.03 16.25 L 17.83 17.97 L 18.87 19.50 L 19.59 21.50 L 19.79 23.33 L 19.69 41.83 L 19.00 43.67 L 18.17 44.79 L 16.92 45.87 L 14.92 46.67 Z"/>
  <path fill="#EC008C" d="M 31.17 58.09 L 30.25 58.12 L 28.83 57.84 L 27.25 57.00 L 26.16 55.92 L 25.14 54.08 L 24.96 52.58 L 24.94 22.25 L 24.62 20.75 L 23.75 18.92 L 22.20 17.08 L 19.74 15.58 L 19.62 15.17 L 20.08 14.85 L 29.08 14.88 L 30.83 15.25 L 32.67 16.16 L 33.83 17.13 L 34.84 18.25 L 35.95 20.25 L 36.54 23.50 L 36.44 52.25 L 35.92 54.83 L 34.79 56.50 L 32.92 57.72 L 31.17 58.09 Z"/>
  <path fill="#FFED00" d="M 48.50 46.67 L 46.50 46.67 L 44.33 45.78 L 43.06 44.67 L 42.08 43.00 L 41.79 41.33 L 41.76 22.33 L 40.67 19.17 L 38.95 17.08 L 36.48 15.58 L 36.34 15.25 L 36.67 14.92 L 37.42 14.79 L 45.83 14.88 L 47.58 15.24 L 49.50 16.20 L 50.75 17.24 L 51.75 18.42 L 52.71 20.25 L 53.02 21.42 L 53.21 23.50 L 53.02 42.25 L 52.69 43.42 L 51.69 44.83 L 50.58 45.80 L 48.50 46.67 Z"/>
  <path fill="#1D1D1B" d="M 69.92 43.08 L 69.40 43.33 L 68.61 44.67 L 67.47 45.75 L 65.50 46.61 L 64.00 46.78 L 63.00 46.62 L 61.08 45.79 L 60.15 45.00 L 59.17 43.75 L 58.63 41.50 L 58.51 22.42 L 57.84 20.00 L 56.77 18.25 L 55.58 17.02 L 54.50 16.24 L 53.26 15.67 L 53.07 15.17 L 53.67 14.83 L 54.92 14.79 L 62.67 14.88 L 64.25 15.18 L 66.10 16.08 L 67.54 17.25 L 68.59 18.58 L 69.25 20.08 L 69.92 20.59 Z"/>
</svg>
