<?xml version="1.0" encoding="UTF-8" standalone="no"?>
<!-- Created with Inkscape (http://www.inkscape.org/) -->
<svg
   xmlns:svg="http://www.w3.org/2000/svg"
   xmlns="http://www.w3.org/2000/svg"
   version="1.0"
   width="744.09448"
   height="186.73228"
   id="svg2434">
  <defs
     id="defs2436" />
  <g
     transform="translate(-36.786164,52.91287)"
     id="layer1">
    <g
       transform="translate(17.709108,17.741142)"
       id="g3846">
      <path
         d="M 86.21875,-298.21875 L 56.9375,-269.03125 L 103.53125,-269.03125 L 103.53125,-222.59375 L 132.8125,-251.78125 L 132.8125,-298.21875 L 86.21875,-298.21875 z M 103.53125,-222.59375 L 103.53125,-176.15625 L 56.9375,-176.15625 L 86.21875,-146.96875 L 132.8125,-146.96875 L 132.8125,-193.40625 L 103.53125,-222.59375 z M 103.53125,-222.59375 L 56.9375,-269.03125 L 56.9375,-176.15625 L 103.53125,-222.59375 z M 56.9375,-176.15625 L 10.34375,-222.59375 L 10.34375,-176.15625 L 56.9375,-176.15625 z M 10.34375,-222.59375 L 56.9375,-269.03125 L 10.34375,-269.03125 L 10.34375,-222.59375 z "
         transform="translate(26.442414,245.30588)"
         style="fill:#e31a2f;fill-rule:nonzero;stroke:none"
         id="path3435" />
      <path
         d="M 190.3299,-28.874453 L 207.64197,-28.874453 L 207.64197,74.320626 L 190.3299,74.320626 L 190.3299,-28.874453"
         style="fill:#231f20;fill-rule:nonzero;stroke:none"
         id="path3445" />
      <path
         d="M 229.6722,20.053929 L 262.85775,-28.874453 L 242.766,-28.874453 L 208.94645,20.080619 L 247.32564,74.320626 L 269.03889,74.320626 L 229.6722,20.053929"
         style="fill:#231f20;fill-rule:nonzero;stroke:none"
         id="path3447" />
      <path
         d="M 688.62515,74.320626 L 745.46243,74.320626 L 745.46243,-16.838024 C 745.46243,-23.491177 740.06158,-28.874453 733.39275,-28.874453 L 678.68902,-28.874453 L 678.68902,-13.190005 L 728.13819,-13.190005 L 728.13819,13.863755 L 688.62515,13.864927 C 681.94419,13.864927 676.5433,19.253103 676.5433,25.905035 L 676.5433,62.279294 C 676.5433,68.930054 681.9564,74.320626 688.62515,74.320626 z M 693.86758,29.5506 L 728.13819,29.5506 L 728.13819,58.633729 L 693.86758,58.633729 L 693.86758,29.5506"
         style="fill:#231f20;fill-rule:nonzero;stroke:none"
         id="path3449" />
      <path
         d="M 650.66051,-28.874453 C 657.32934,-28.874453 662.74243,-23.491177 662.74243,-16.838024 L 662.74243,17.065783 C 662.74243,23.714041 657.32934,29.103437 650.66051,29.103437 C 650.66051,29.103437 645.77165,29.103437 643.66255,29.103437 L 668.80165,74.320626 L 649.81927,74.320626 L 616.24361,13.863755 C 616.24361,13.863755 643.65034,13.863755 645.41815,13.863755 L 645.41815,-13.190005 L 610.4526,-13.190005 L 610.4526,74.320626 L 593.12832,74.320626 L 593.12832,-28.874453 L 650.66051,-28.874453"
         style="fill:#231f20;fill-rule:nonzero;stroke:none"
         id="path3451" />
      <path
         d="M 516.06522,-16.839249 C 516.06522,-23.491177 521.46611,-28.874453 528.13485,-28.874453 L 578.46184,-28.874453 L 578.46184,-13.190005 L 533.3895,-13.190005 L 533.3895,13.863755 L 576.92573,13.863755 L 576.92573,29.5506 L 533.3895,29.5506 L 533.3895,58.633729 L 578.46184,58.633729 L 578.46184,74.320626 L 528.13485,74.320626 C 521.46611,74.320626 516.06522,68.930054 516.06522,62.279294 L 516.06522,-16.839249"
         style="fill:#231f20;fill-rule:nonzero;stroke:none"
         id="path3453" />
      <path
         d="M 441.37946,-16.839249 C 441.37946,-23.491177 446.79251,-28.874453 453.4613,-28.874453 L 503.06892,-28.874453 L 503.06892,-13.190005 L 458.7159,-13.190005 L 458.7159,58.633729 L 503.06892,58.633729 L 503.06892,74.320626 L 453.4613,74.320626 C 446.79251,74.320626 441.37946,68.930054 441.37946,62.279294 L 441.37946,-16.839249"
         style="fill:#231f20;fill-rule:nonzero;stroke:none"
         id="path3455" />
      <path
         d="M 354.70927,-16.838024 C 354.70927,-23.491177 360.11016,-28.874453 366.77899,-28.874453 L 414.22872,-28.874453 C 420.89755,-28.874453 426.29844,-23.491177 426.29844,-16.836799 L 426.29844,62.281743 C 426.29844,68.930054 420.89755,74.320626 414.21651,74.320626 L 366.77899,74.320626 C 360.11016,74.320626 354.70927,68.930054 354.70927,62.279294 L 354.70927,-16.838024 z M 372.02138,58.633729 L 408.97416,58.633729 L 408.97416,-13.190005 L 372.02138,-13.190005 L 372.02138,58.633729"
         style="fill:#231f20;fill-rule:nonzero;stroke:none"
         id="path3457" />
      <path
         d="M 272.03801,18.883666 L 272.03801,-28.874453 L 289.36228,-28.874453 C 289.36228,-28.874453 289.36228,13.429912 289.36228,15.241776 L 322.29185,15.241776 L 322.29185,-28.874453 L 339.61612,-28.874453 L 339.61612,62.281743 C 339.61612,68.930054 334.20303,74.320626 327.53424,74.320626 L 276.20754,74.325473 L 276.20754,58.633729 C 276.20754,58.633729 320.47529,58.643475 322.29185,58.643475 L 322.29185,30.924999 C 320.48749,30.924999 284.10771,30.924999 284.10771,30.924999 C 277.43889,30.924999 272.03801,25.534423 272.03801,18.883666"
         style="fill:#231f20;fill-rule:nonzero;stroke:none"
         id="path3459" />
    </g>
  </g>
</svg>
