<?xml version="1.0" encoding="UTF-8" standalone="no"?>
<!-- Created with Inkscape (http://www.inkscape.org/) -->
<svg
   xmlns:dc="http://purl.org/dc/elements/1.1/"
   xmlns:cc="http://web.resource.org/cc/"
   xmlns:rdf="http://www.w3.org/1999/02/22-rdf-syntax-ns#"
   xmlns:svg="http://www.w3.org/2000/svg"
   xmlns="http://www.w3.org/2000/svg"
   xmlns:sodipodi="http://sodipodi.sourceforge.net/DTD/sodipodi-0.dtd"
   xmlns:inkscape="http://www.inkscape.org/namespaces/inkscape"
   width="721.00171"
   height="178.63396"
   id="svg115845"
   sodipodi:version="0.32"
   inkscape:version="0.44"
   version="1.0"
   sodipodi:docbase="C:\Dokumente und Einstellungen\Andreas\Eigene Dateien\Eigene Bilder\sonstiges\Logos\Vektor"
   sodipodi:docname="Lexmark-Logo.svg">
  <defs
     id="defs115847">
    <clipPath
       id="clp82"
       clip-rule="nonzero">
<path
   d="M 1001.6,870.49 L 1036.3,870.49 L 1036.3,857.41 L 1001.6,857.41 L 1001.6,870.49 z "
   id="path1826" />

</clipPath>
    <clipPath
       id="clp83"
       clip-rule="nonzero">
<path
   d="M 1001.6,870.49 L 1036.3,870.49 L 1036.3,857.41 L 1001.6,857.41 L 1001.6,870.49 z "
   id="path1835" />

</clipPath>
    <clipPath
       id="clp84"
       clip-rule="nonzero">
<path
   d="M 1001.6,870.49 L 1036.3,870.49 L 1036.3,857.41 L 1001.6,857.41 L 1001.6,870.49 z "
   id="path1844" />

</clipPath>
    <clipPath
       id="clp81"
       clip-rule="nonzero">
<path
   d="M 1000.9,934.34 L 1038.6,934.34 L 1038.6,922.24 L 1000.9,922.24 L 1000.9,934.34 z "
   id="path1800" />

</clipPath>
  </defs>
  <sodipodi:namedview
     id="base"
     pagecolor="#ffffff"
     bordercolor="#666666"
     borderopacity="1.0"
     inkscape:pageopacity="0.0"
     inkscape:pageshadow="2"
     inkscape:zoom="0.7"
     inkscape:cx="412.61368"
     inkscape:cy="91.734893"
     inkscape:document-units="px"
     inkscape:current-layer="layer1"
     inkscape:window-width="904"
     inkscape:window-height="574"
     inkscape:window-x="141"
     inkscape:window-y="185" />
  <metadata
     id="metadata115850">
    <rdf:RDF>
      <cc:Work
         rdf:about="">
        <dc:format>image/svg+xml</dc:format>
        <dc:type
           rdf:resource="http://purl.org/dc/dcmitype/StillImage" />
      </cc:Work>
    </rdf:RDF>
  </metadata>
  <g
     inkscape:label="Ebene 1"
     inkscape:groupmode="layer"
     id="layer1"
     transform="translate(-95.14216,-421.6559)">
    <path
       style="font-size:3.15269995px;letter-spacing:-0.063054;word-spacing:0;fill:red;fill-rule:nonzero;stroke:none;stroke-width:0.077;stroke-linecap:butt;stroke-linejoin:miter;stroke-miterlimit:4;stroke-dasharray:none;font-family:fnt0, &quot;Futura&quot;, Arial"
       d="M 507.01422,600.28983 L 482.97177,547.10416 L 505.95667,493.29649 L 530.53816,547.20783 L 507.01422,600.28983"
       class="ps071 ps130 ps20"
       id="path1586" />
    <path
       style="font-size:3.15269995px;letter-spacing:-0.063054;word-spacing:0;fill:black;fill-rule:evenodd;stroke:none;stroke-width:0.077;stroke-linecap:butt;stroke-linejoin:miter;stroke-miterlimit:4;stroke-dasharray:none;font-family:fnt0, &quot;Futura&quot;, Arial"
       d="M 433.25 19.5 L 420.84375 48.625 L 443.375 97.875 C 443.375 97.875 443.36468 97.865082 443.375 97.96875 C 443.69636 98.69442 446.91893 106.17725 449.59375 112.8125 C 452.11317 118.92941 449.36541 120.66916 442.9375 121.1875 C 441.36179 121.29117 440.84375 122.14073 440.84375 123.28125 C 440.84375 124.6291 442.03986 125.03125 443.875 125.03125 C 456.77222 125.03125 519.65622 125.03125 519.65625 125.03125 C 521.49139 125.03125 522.46872 124.6291 522.46875 123.28125 C 522.46875 121.9334 521.53603 121.29117 520.34375 121.1875 C 512.89986 120.35816 511.84374 112.38154 511.84375 109.375 C 511.84375 108.33815 511.84374 103.35981 511.84375 97.96875 C 511.84375 90.81516 511.84374 82.93151 511.84375 81.6875 C 511.84375 75.46692 512.96523 76.307674 516.625 81.90625 C 520.08778 87.19364 523.5478 92.577512 527.03125 97.96875 C 532.10096 105.84801 537.17965 113.74424 542.125 121.3125 C 544.01189 124.31904 545.23186 125.03125 548 125.03125 C 570.82948 125.03125 610.28128 125.03125 610.28125 125.03125 C 612.14744 125.03125 613.06247 124.6291 613.0625 123.28125 C 613.0625 121.9334 612.24418 121.29117 611 121.1875 C 603.53541 120.35816 602.50001 112.16278 602.5 109.15625 C 602.5 109.15625 602.50001 104.29299 602.5 97.96875 C 602.5 92.2665 602.50001 85.213476 602.5 79.71875 C 602.5 73.49817 603.52923 74.242363 607.46875 79.21875 C 612.65266 85.854 617.63567 92.266502 622.09375 97.96875 C 627.07014 104.29299 631.41096 109.8842 634.625 114.03125 C 637.52787 117.6598 638.15061 120.35816 630.375 121.1875 C 629.13082 121.29117 628.21875 121.9334 628.21875 123.28125 C 628.21875 124.6291 629.25878 125.03125 631.125 125.03125 L 672.28125 125.03125 C 674.14744 125.03125 675.06248 124.6291 675.0625 123.28125 C 675.0625 121.9334 674.14033 121.29117 673 121.1875 C 665.53523 120.35816 665.62534 118.2941 659.09375 110 C 656.39822 106.57879 653.08753 102.4268 649.5625 97.96875 C 638.36553 83.86873 625.31248 67.500002 625.3125 67.5 C 623.34281 65.11547 624.26872 64.813608 626.03125 62.84375 C 635.36204 53.0983 645.94767 41.352509 654.65625 34.40625 C 657.04077 32.54006 660.56738 29.750001 663.78125 29.75 C 665.1291 29.75 666.25002 29.23127 666.25 27.46875 C 666.25 25.08422 664.20298 25.093751 663.0625 25.09375 C 662.64783 25.09375 635.57095 25.093751 635.15625 25.09375 C 634.01573 25.09375 631.53123 25.08422 631.53125 27.46875 C 631.53125 29.23127 633.18343 29.771161 634.53125 29.875 C 641.27 30.08234 641.70226 34.41994 636 39.5 L 608 67.5 C 602.81609 72.37273 602.59374 70.902652 602.59375 65.71875 C 602.59375 64.78574 602.59374 52.468689 602.59375 43.65625 C 602.59375 43.65625 602.38231 38.577451 603.9375 35.15625 C 605.38902 31.9422 608.60258 30.475851 610.46875 29.75 C 611.71277 29.33533 613.06247 29.23127 613.0625 27.46875 C 613.0625 25.08422 610.89034 25.093751 609.75 25.09375 C 609.23149 25.09375 603.95654 25.093751 599.1875 25.09375 L 584.53125 25.09375 C 577.07701 25.09375 572.03019 25.093751 571.8125 25.09375 C 570.54762 25.09375 569 25.62257 569 27.28125 C 569 30.08063 572.87757 29.250391 575.625 31.53125 C 578.39315 33.91578 579.87501 35.650502 579.875 43.21875 C 579.875 45.60328 579.8959 79.618182 579.90625 97.96875 C 579.90625 99.42009 579.90625 100.78707 579.90625 102.03125 C 580.05149 107.42231 579.59507 114.99196 577.6875 117.6875 C 576.09091 119.96836 573.61532 121.3125 571.5625 121.3125 C 568.94993 121.3125 567.42616 120.15005 565.0625 116.625 C 562.67797 113.09995 557.54905 105.43334 552.5 97.96875 C 546.36239 88.8453 540.36099 79.921768 539.625 78.78125 C 538.23574 76.70772 539.75389 76.217258 540.59375 75.90625 C 549.81052 71.7592 562.03128 67.182181 562.03125 52.875 C 562.03125 40.64118 555.2872 25.093751 512.5625 25.09375 C 494.77168 25.09375 481.64334 25.093751 481.125 25.09375 C 479.86011 25.09375 478.3125 25.62257 478.3125 27.28125 C 478.3125 30.08063 482.19005 29.250391 484.9375 31.53125 C 487.69531 33.91578 489.15626 35.650502 489.15625 43.21875 C 489.15625 44.77394 489.15626 59.195818 489.15625 74.125 L 489.25 97.96875 L 489.3125 110.21875 C 489.3125 115.29882 489.03892 121.3125 481.84375 121.3125 C 477.676 121.3125 474.86494 118.79881 472.75 113.71875 C 471.31935 110.29737 468.96576 104.81133 466.125 97.96875 C 454.17131 69.35422 433.25 19.500001 433.25 19.5 z M 515.28125 31.71875 C 534.56499 31.71875 538.8125 41.16961 538.8125 52.78125 C 538.8125 67.5031 530.75361 74.031246 520.5 74.03125 C 519.22477 74.03125 517.54245 74.031246 515.5 74.03125 C 512.47277 74.03125 511.90624 72.585883 511.90625 68.75 C 511.90625 67.29848 511.90624 35.972679 511.90625 34.625 C 511.90625 32.24047 513.22857 31.71875 515.28125 31.71875 z "
       transform="translate(95.14216,421.6559)"
       id="path1588" />
    <path
       style="font-size:3.15269995px;letter-spacing:-0.063054;word-spacing:0;fill:black;fill-rule:nonzero;stroke:none;stroke-width:0.077;stroke-linecap:butt;stroke-linejoin:miter;stroke-miterlimit:4;stroke-dasharray:none;font-family:fnt0, &quot;Futura&quot;, Arial"
       d="M 5 0 C 3.310094 0 -1.4210855e-014 -0.093360062 0 2.1875 C 0 4.77937 3.6154979 4.4463098 6.03125 6.3125 C 7.53452 7.55668 9.6875004 9.4322899 9.6875 12.75 C 9.6875 15.8602 9.7812503 105.32469 9.78125 110.09375 C 9.78125 115.27748 7.5642701 117.78724 5.75 119.03125 C 3.417222 120.58644 0.125 120.56439 0.125 123.15625 C 0.125 124.60777 1.3075049 125.03125 2.4375 125.03125 C 3.567667 125.03125 69.429738 125.03125 70 125.03125 C 70.55974 125.03125 71.271528 124.42309 71.40625 123.59375 C 71.54097 122.76441 76.001058 95.392011 76.21875 94.5625 C 76.42626 93.62949 75.849807 92.271331 74.9375 92.375 C 74.01466 92.47867 73.600036 92.467639 72.75 94.4375 C 72.04486 95.99269 68.156569 105.63719 63.84375 110.40625 C 61.0549 113.41296 57.016569 117.6875 45.09375 117.6875 C 42.11826 117.6875 37.24527 117.6875 36.25 117.6875 C 34.06245 117.6875 32.937499 117.45096 32.9375 113.71875 L 32.9375 105.34375 C 32.9375 105.34375 32.937499 15.8602 32.9375 12.75 C 32.9375 9.43229 35.059228 7.5566798 36.5625 6.3125 C 38.97825 4.44631 42.625001 4.7793699 42.625 2.1875 C 42.625 -0.09336 39.283649 2.5011104e-011 37.59375 0 C 35.90384 0 6.6898999 2.5011104e-011 5 0 z M 80.03125 25.09375 C 78.76637 25.09375 77.187504 25.62257 77.1875 27.28125 C 77.1875 30.08063 81.09647 29.250391 83.84375 31.53125 C 86.60155 33.91578 88.062498 35.650502 88.0625 43.21875 C 88.0625 46.4328 88.062498 106.15104 88.0625 109.46875 C 88.0625 114.03047 85.529102 118.61958 82.84375 119.65625 C 81.7448 120.0711 78.062502 120.35555 78.0625 122.84375 C 78.0625 125.02094 80.592413 125.03125 82.5 125.03125 C 84.39724 125.03125 123.21875 125.03125 123.21875 125.03125 C 141.16499 125.03125 158.07501 125.03125 158.53125 125.03125 C 159.52653 125.03125 159.72005 124.42159 160 123.28125 C 160.26961 122.03706 164.3556 102.96426 164.65625 102.03125 C 165.28861 100.26873 164.25387 98.906253 162.84375 98.90625 C 161.21612 98.90625 160.78602 99.123893 159.59375 101.09375 C 158.49481 102.85627 154.99042 108.64412 148.5625 112.6875 C 144.42597 115.27937 135.92925 118.40625 127.59375 118.40625 C 122.36845 118.40625 115.18254 118.40625 114.125 118.40625 C 112.07217 118.40625 110.71875 117.8847 110.71875 115.5 C 110.71875 114.15232 110.8125 84.607773 110.8125 83.15625 C 110.8125 79.21653 111.36849 77.875002 114.40625 77.875 C 116.44856 77.875 117.28727 77.875002 118.5625 77.875 C 122.99986 77.875 127.25618 79.946701 130.75 84.09375 C 134.06754 88.13696 136.19999 94.150829 136.625 95.1875 C 137.05002 96.12068 137.42538 97.562502 139.25 97.5625 C 140.73257 97.5625 141 96.535349 141 95.1875 L 141 57.96875 C 141 56.51723 140.17006 55.562501 138.6875 55.5625 C 137.20493 55.5625 136.78985 56.723069 136.375 57.65625 C 135.94998 58.69293 135.00521 61.997788 131.6875 65.9375 C 128.19368 70.08438 122.01899 71.031247 119.40625 71.03125 C 118.14154 71.03125 116.44856 71.031247 114.40625 71.03125 C 111.36849 71.03125 110.8125 69.554802 110.8125 65.71875 C 110.8125 64.2674 110.8125 35.972679 110.8125 34.625 C 110.8125 32.24047 112.13468 31.71875 114.1875 31.71875 C 115.24488 31.71875 122.4622 31.71875 127.6875 31.71875 C 138.69784 31.71875 142.20747 33.68229 146.4375 37 C 150.67787 40.4212 155.13749 49.671978 155.5625 50.8125 C 155.98752 51.95284 156.75665 53.71875 158.15625 53.71875 C 159.57672 53.71875 160 52.472851 160 51.125 C 160 50.19199 160 28.087941 160 26.84375 C 160 25.70341 159.52653 25.093751 158.53125 25.09375 C 157.54633 25.09375 80.891808 25.093751 80.03125 25.09375 z M 166.71875 25.1875 C 165.07025 25.1875 163.84375 25.71632 163.84375 27.375 C 163.84375 29.44853 165.33013 29.552581 166.84375 29.65625 C 169.23863 29.96743 171.70621 31.0133 173.46875 33.8125 C 179.11907 42.72862 196.34084 70.080502 200.09375 76.09375 C 201.64894 78.58195 201.80503 78.885307 200.25 81.0625 C 195.44972 87.80142 181.18736 108.01801 176.75 114.03125 C 173.28722 118.69665 168.68795 121.20883 166.5625 121.3125 C 165.37024 121.41617 163.84375 122.1209 163.84375 123.46875 C 163.84375 124.81661 165.38231 125.03125 166.9375 125.03125 L 194.71875 125.03125 C 194.94814 125.03125 195.17244 125.01397 195.375 125 C 196.79292 124.9022 197.53125 124.46062 197.53125 123.28125 C 197.53125 121.9334 196.56728 121.3125 195.375 121.3125 C 194.9253 121.31898 194.50576 121.29224 194.09375 121.28125 C 187.9136 121.11647 186.02551 118.95335 190.15625 113.21875 C 196.71888 104.0953 201.30662 97.872337 206.6875 90.71875 C 208.35671 88.43772 209.12801 89.588321 209.78125 90.625 C 211.67849 93.63171 219.14793 105.75548 223.96875 113.53125 C 227.91881 119.95899 224.673 120.35816 217.21875 121.1875 C 217.06972 121.20046 216.92058 121.22044 216.78125 121.25 C 216.50258 121.30912 216.25581 121.40085 216.03125 121.53125 C 215.46986 121.85725 215.09375 122.43884 215.09375 123.28125 C 215.09375 124.6291 216.10253 125.03125 217.9375 125.03125 C 217.9375 125.03125 240.41085 125.03125 261.1875 125.03125 C 274.40186 125.03125 289.33389 125.03125 289.90625 125.03125 C 290.25878 125.03125 290.61286 125.04907 290.9375 125.03125 C 291.09982 125.02234 291.22718 124.99366 291.375 124.96875 C 292.1141 124.84421 292.65625 124.47657 292.65625 123.375 C 292.65625 122.62983 292.36591 122.14991 291.90625 121.78125 C 291.81432 121.70752 291.72949 121.6274 291.625 121.5625 C 290.58014 120.91351 288.94991 120.6572 287.71875 119.75 C 284.68117 117.46914 283.27074 114.68112 283.28125 111.15625 C 283.28125 111.15625 283.28126 59.605109 283.28125 51 C 283.28125 42.80956 285.52754 49.8812 286.9375 53.40625 C 291.25049 64.29222 308.32643 106.48792 313.46875 119.34375 C 315.18987 123.59447 315.74006 125.25 318.0625 125.25 C 318.36315 125.25 318.6306 125.21538 318.875 125.15625 C 318.9972 125.12669 319.10874 125.07468 319.21875 125.03125 C 319.32876 124.98782 319.43219 124.96295 319.53125 124.90625 C 319.72936 124.79285 319.93196 124.63155 320.09375 124.46875 C 320.90268 123.65473 321.32072 122.24721 321.96875 120.5625 C 325.53519 111.02438 345.20639 57.84481 349.1875 47.0625 C 350.3382 43.9523 351.65626 44.363971 351.65625 46.4375 C 351.65625 47.68151 351.65626 108.97174 351.65625 109.59375 C 351.65625 114.25914 349.49577 117.98765 346.40625 119.75 C 345.3901 120.37218 341.625 120.68788 341.625 122.96875 C 341.625 124.39429 342.5826 124.82903 343.75 124.96875 C 343.98348 124.99669 344.22235 125.02315 344.46875 125.03125 C 344.96154 125.04745 345.4606 125.03125 345.9375 125.03125 L 377.53125 125.03125 C 378.00556 125.03125 378.51159 125.04745 379 125.03125 C 380.46523 124.98265 381.78125 124.6794 381.78125 122.96875 C 381.78125 120.68788 378.00562 120.37218 377 119.75 C 373.90015 117.98765 371.78124 114.25914 371.78125 109.59375 C 371.78125 109.28275 371.74441 95.790605 371.65625 80.71875 C 371.56809 65.646895 371.42641 48.999586 371.28125 42.3125 C 371.19846 38.78746 371.15385 36.924371 372.84375 34.125 C 374.39894 31.6368 376.21571 30.78817 377.78125 30.0625 C 378.91124 29.64765 380.875 29.65586 380.875 27.375 C 380.875 25.71632 379.53387 25.1875 377.875 25.1875 L 347 25.1875 C 345.68587 25.1875 345.08829 25.589819 344.65625 26.40625 C 344.51224 26.678394 344.37441 27.012162 344.25 27.375 C 344.25 27.375 337.15805 46.954779 330.625 64.625 C 328.44732 70.515074 326.33278 76.209608 324.5625 80.875 C 323.76423 82.961464 323.21392 84.114192 322.6875 84.375 C 322.01067 84.710325 321.36969 83.557598 320.25 80.875 C 311.30266 59.5179 297.8125 27.375 297.8125 27.375 C 297.1698 25.71632 296.61859 25.1875 295.28125 25.1875 C 294.35841 25.1875 242.53126 25.1875 242.53125 25.1875 C 237.21281 25.1875 230.12159 25.1875 229.40625 25.1875 C 229.12375 25.1875 228.73885 25.181492 228.34375 25.21875 C 227.7511 25.274637 227.12746 25.431954 226.625 25.78125 C 226.54126 25.839466 226.44956 25.898309 226.375 25.96875 C 226.00221 26.320957 225.75 26.848584 225.75 27.59375 C 225.75 28.03438 225.85031 28.381316 226.03125 28.6875 C 226.30267 29.146776 226.74914 29.485187 227.25 29.6875 C 227.41695 29.754938 227.6046 29.800816 227.78125 29.84375 C 227.9579 29.886684 228.13404 29.917045 228.3125 29.9375 C 228.49096 29.957955 228.67139 29.96875 228.84375 29.96875 C 232.66169 29.890997 235.03913 30.807658 234.53125 33.28125 C 234.48893 33.487383 234.42707 33.709371 234.34375 33.9375 C 234.09379 34.621886 233.64927 35.387051 233 36.28125 C 229.56845 40.94664 219.70047 54.416559 218.03125 56.59375 C 215.63637 59.80779 214.85847 58.073529 213.59375 56 C 212.90947 54.96333 206.50745 44.69176 201.5 36.8125 C 197.73657 30.79926 203.86137 30.082341 207.59375 29.875 C 209.0244 29.875 210.12499 29.356269 210.125 27.59375 C 210.125 25.20922 207.99465 25.1875 206.875 25.1875 C 205.74483 25.1875 188.03126 25.1875 188.03125 25.1875 C 176.02546 25.1875 167.00888 25.1875 166.71875 25.1875 z M 263 29.875 C 269.84258 29.875 272.31251 32.25266 272.3125 39.40625 C 272.3125 43.65697 272.31251 108.96371 272.3125 112.28125 C 272.3125 115.39145 271.47383 120.58683 263.71875 121.3125 C 263.08412 121.41143 262.37068 121.40625 261.65625 121.40625 C 261.272 121.40625 260.92478 121.40312 260.5625 121.375 C 259.83793 121.31876 259.15309 121.20696 258.5 121.03125 C 254.2549 119.88914 251.27741 116.10313 246.59375 108.4375 C 242.60228 101.80225 236.8538 92.887291 230.1875 82.3125 C 230.1875 82.3125 226.49662 76.00914 223.59375 71.34375 C 222.8472 69.9959 222.91161 69.13753 224.03125 67.375 C 225.03687 65.81981 239.84821 45.216089 245.21875 38.0625 C 247.2053 35.431786 251.01287 31.127054 259.21875 30.09375 C 259.80488 30.019943 260.39926 29.944951 261.03125 29.90625 C 261.66324 29.867549 262.32027 29.875 263 29.875 z "
       id="path1604"
       transform="translate(95.14216,421.6559)" />
    <path
       style="font-size:3.15269995px;letter-spacing:-0.063054;word-spacing:0;fill:black;fill-rule:evenodd;stroke:none;stroke-width:0.077;stroke-linecap:butt;stroke-linejoin:miter;stroke-miterlimit:4;stroke-dasharray:none;font-family:fnt0, &quot;Futura&quot;, Arial"
       d="M 779.13155,522.63669 L 785.55947,522.63669 L 785.55947,519.52649 L 769.28243,519.52649 L 769.28243,522.63669 L 775.81401,522.63669 L 775.81401,546.68949 L 779.13155,546.68949 L 779.13155,522.63669"
       class="ps060 ps130 ps20"
       id="path1608" />
    <path
       style="font-size:3.15269995px;letter-spacing:-0.063054;word-spacing:0;fill:black;fill-rule:evenodd;stroke:none;stroke-width:0.077;stroke-linecap:butt;stroke-linejoin:miter;stroke-miterlimit:4;stroke-dasharray:none;font-family:fnt0, &quot;Futura&quot;, Arial"
       d="M 801.31816,547.3115 L 809.40493,528.7536 L 809.5086,528.7536 L 812.6188,546.68949 L 816.14385,546.68949 L 810.64894,518.38597 L 801.31816,539.74324 L 791.98738,518.38597 L 786.38898,546.68949 L 789.91385,546.68949 L 793.1279,528.7536 L 793.1279,528.7536 L 801.31816,547.3115"
       class="ps060 ps130 ps20"
       id="path1610" />
  </g>
</svg>
